<?xml version="1.0" encoding="UTF-8"?>
<svg version="1.1" xmlns="http://www.w3.org/2000/svg" width="500" height="500">
<path d="M0 0 C13.13717549 14.90389909 18.10612957 33.20969845 18.203125 52.66015625 C18.20882507 53.5676915 18.21452515 54.47522675 18.22039795 55.41026306 C18.22979724 57.3238714 18.23636162 59.23749555 18.24023438 61.15112305 C18.24989127 64.03008461 18.28094348 66.90831626 18.3125 69.78710938 C18.4267864 89.5937229 15.40288007 108.2757759 4 125 C3.53851563 125.69609375 3.07703125 126.3921875 2.6015625 127.109375 C-8.19222741 142.49499818 -23.99851991 149.80284425 -42 153 C-48.66128392 153.74558437 -55.34341463 153.61379698 -62.03515625 153.5234375 C-63.89301418 153.51661607 -65.75088094 153.51191326 -67.60874939 153.50918579 C-72.44676299 153.49593683 -77.28401533 153.45193013 -82.12176514 153.40161133 C-86.03683905 153.366183 -89.95183771 153.3531148 -93.8670435 153.34119225 C-98.61062539 153.32625045 -103.35413405 153.30123145 -108.09765625 153.2734375 C-108.97317705 153.26852673 -109.84869785 153.26361595 -110.75074959 153.25855637 C-113.28842352 153.24185936 -115.82593749 153.21955388 -118.36352539 153.19287109 C-119.16769268 153.18447299 -119.97185997 153.17607489 -120.80039597 153.16742229 C-124.88269407 153.10669046 -128.943221 152.96151533 -133.01713562 152.68858337 C-133.82920691 152.63450884 -134.64127821 152.5804343 -135.47795773 152.52472115 C-137.0053993 152.41645722 -138.53211907 152.29716334 -140.05761814 152.16430473 C-146.90754046 151.66413402 -151.7824816 153.56803264 -157.6875 156.8125 C-159.50189292 157.73962778 -161.31825677 158.66291015 -163.13671875 159.58203125 C-163.97066162 160.0112085 -164.80460449 160.44038574 -165.66381836 160.88256836 C-170.98196464 163.42631959 -176.07591384 164.53855329 -182 164 C-186.65590164 162.23075738 -189.8541429 159.86491015 -193 156 C-194.29160649 151.24392819 -193.74581773 148.12539538 -192.1875 143.5 C-191.83042969 142.4171875 -191.47335938 141.334375 -191.10546875 140.21875 C-190.3865244 138.12542792 -189.64043715 136.04116574 -188.86328125 133.96875 C-187.19719073 128.23920793 -187.78048157 124.79877218 -190.64233398 119.54516602 C-191.00786377 118.89088623 -191.37339355 118.23660645 -191.75 117.5625 C-198.72776326 104.36999843 -201.12174098 90.8130412 -201.203125 75.96875 C-201.20882507 75.13396118 -201.21452515 74.29917236 -201.22039795 73.43908691 C-201.22978085 71.68108357 -201.23635495 69.92306317 -201.24023438 68.16503906 C-201.24987477 65.53417537 -201.2809358 62.90411652 -201.3125 60.2734375 C-201.45754429 37.02701749 -197.17587909 15.61866762 -181 -2 C-144.59482429 -37.70395242 -36.1370455 -34.31950179 0 0 Z " fill="#FEC98C" transform="translate(342,84)"/>
<path d="M0 0 C2.06745771 2.10020025 2.93843126 3.34177415 3.21484375 6.296875 C2.53053723 12.34961434 1.03670437 16.7102569 -2 22 C-1.01 22.5259375 -1.01 22.5259375 0 23.0625 C2 25 2 25 2.3515625 28.16015625 C1.94996848 32.54645535 0.53332417 35.63225534 -1.625 39.375 C-1.99181885 40.03201904 -2.3586377 40.68903809 -2.73657227 41.3659668 C-7.3653669 49.56407415 -12.37730885 56.68636682 -18.796875 63.60546875 C-20.6739308 65.64560209 -22.43098338 67.732582 -24.1875 69.875 C-47.59282953 96.5624562 -81.46918811 109.65645608 -116.11645508 112.81298828 C-150.86294225 115.06646463 -186.54024742 104.87466467 -213 82 C-232.9436522 64.04486444 -252.5779685 39.40818451 -257.00390625 12.03125 C-257 10 -257 10 -255.5625 6.875 C-252.08484895 4.33037728 -250.24225608 4.43826058 -246 5 C-243.81976924 6.95646228 -242.219451 8.67078337 -240.4375 10.9375 C-234.43348225 17.96755107 -228.05293524 22.54325744 -220 27 C-219.00871094 27.55171875 -218.01742187 28.1034375 -216.99609375 28.671875 C-199.6190962 37.46232487 -177.48334633 42.46697767 -158 42 C-158.78246094 41.55269531 -159.56492187 41.10539062 -160.37109375 40.64453125 C-161.88896484 39.73767578 -161.88896484 39.73767578 -163.4375 38.8125 C-164.44683594 38.22082031 -165.45617187 37.62914062 -166.49609375 37.01953125 C-169 35 -169 35 -169.93359375 32.43359375 C-170.02230528 29.18257692 -168.87483651 27.59592748 -167 25 C-166 24 -166 24 -163.125 23.5625 C-158.4499623 23.62861164 -155.190984 25.96606551 -151.24609375 28.26953125 C-147.46740451 30.28392275 -143.63414103 31.82492056 -139.625 33.3125 C-138.60805054 33.69365967 -138.60805054 33.69365967 -137.57055664 34.08251953 C-119.52072996 40.66684564 -100.82162496 37.14411508 -83.83398438 29.29321289 C-76.90877739 25.93348385 -70.63002856 21.90714823 -64.51489258 17.23754883 C-59.30898745 13.2836275 -59.30898745 13.2836275 -56 13 C-53.3125 14 -53.3125 14 -51 16 C-49.80337893 19.27496292 -49.29184199 21.46218629 -50.796875 24.73046875 C-55.49013027 31.06056923 -63.18496252 34.4057679 -70 38 C-47.33574121 33.64295868 -26.39140886 23.10624647 -12.3125 4.25 C-8.3844748 -1.01059251 -6.60010192 -1.5052864 0 0 Z " fill="#489599" transform="translate(374,226)"/>
<path d="M0 0 C13.13717549 14.90389909 18.10612957 33.20969845 18.203125 52.66015625 C18.20882507 53.5676915 18.21452515 54.47522675 18.22039795 55.41026306 C18.22979724 57.3238714 18.23636162 59.23749555 18.24023438 61.15112305 C18.24989127 64.03008461 18.28094348 66.90831626 18.3125 69.78710938 C18.4267864 89.5937229 15.40288007 108.2757759 4 125 C3.53851563 125.69609375 3.07703125 126.3921875 2.6015625 127.109375 C-8.19222741 142.49499818 -23.99851991 149.80284425 -42 153 C-48.66128392 153.74558437 -55.34341463 153.61379698 -62.03515625 153.5234375 C-63.89301418 153.51661607 -65.75088094 153.51191326 -67.60874939 153.50918579 C-72.44676299 153.49593683 -77.28401533 153.45193013 -82.12176514 153.40161133 C-86.03683905 153.366183 -89.95183771 153.3531148 -93.8670435 153.34119225 C-98.61062539 153.32625045 -103.35413405 153.30123145 -108.09765625 153.2734375 C-108.97317705 153.26852673 -109.84869785 153.26361595 -110.75074959 153.25855637 C-113.28842352 153.24185936 -115.82593749 153.21955388 -118.36352539 153.19287109 C-119.16769268 153.18447299 -119.97185997 153.17607489 -120.80039597 153.16742229 C-124.88269407 153.10669046 -128.943221 152.96151533 -133.01713562 152.68858337 C-133.82920691 152.63450884 -134.64127821 152.5804343 -135.47795773 152.52472115 C-137.0053993 152.41645722 -138.53211907 152.29716334 -140.05761814 152.16430473 C-146.90754046 151.66413402 -151.7824816 153.56803264 -157.6875 156.8125 C-159.50189292 157.73962778 -161.31825677 158.66291015 -163.13671875 159.58203125 C-163.97066162 160.0112085 -164.80460449 160.44038574 -165.66381836 160.88256836 C-170.98196464 163.42631959 -176.07591384 164.53855329 -182 164 C-186.65590164 162.23075738 -189.8541429 159.86491015 -193 156 C-194.29160649 151.24392819 -193.74581773 148.12539538 -192.1875 143.5 C-191.83042969 142.4171875 -191.47335938 141.334375 -191.10546875 140.21875 C-190.3865244 138.12542792 -189.64043715 136.04116574 -188.86328125 133.96875 C-187.19719073 128.23920793 -187.78048157 124.79877218 -190.64233398 119.54516602 C-191.00786377 118.89088623 -191.37339355 118.23660645 -191.75 117.5625 C-198.72776326 104.36999843 -201.12174098 90.8130412 -201.203125 75.96875 C-201.20882507 75.13396118 -201.21452515 74.29917236 -201.22039795 73.43908691 C-201.22978085 71.68108357 -201.23635495 69.92306317 -201.24023438 68.16503906 C-201.24987477 65.53417537 -201.2809358 62.90411652 -201.3125 60.2734375 C-201.45754429 37.02701749 -197.17587909 15.61866762 -181 -2 C-144.59482429 -37.70395242 -36.1370455 -34.31950179 0 0 Z M-174.06640625 12.3828125 C-182.68346755 23.9590806 -186.31388543 36.81248384 -186.30078125 51.04296875 C-186.30506638 52.08842361 -186.3093515 53.13387848 -186.31376648 54.21101379 C-186.3194869 56.4154895 -186.320027 58.61998406 -186.31567383 60.82446289 C-186.31252595 64.16000419 -186.33596082 67.49464697 -186.36132812 70.83007812 C-186.41082253 87.24838593 -185.72579199 102.22356321 -175.1875 115.6875 C-172.55695559 119.67089582 -172.68357128 121.30225051 -173 126 C-173.54373032 128.56028354 -174.1715609 131.10391534 -174.875 133.625 C-175.22304687 134.89601562 -175.57109375 136.16703125 -175.9296875 137.4765625 C-177 141 -177 141 -178.1328125 143.7109375 C-179.23617957 146.215459 -179.23617957 146.215459 -179 150 C-173.06275043 149.49639401 -168.39648121 148.23137389 -163 145.75 C-162.29866943 145.43861084 -161.59733887 145.12722168 -160.87475586 144.80639648 C-157.2134247 143.14641687 -153.86187899 141.37936774 -150.5625 139.0625 C-145.45701684 135.64014316 -140.29635417 136.67617352 -134.47338867 137.49731445 C-129.63724618 138.10107193 -124.82606371 138.22538247 -119.95703125 138.31640625 C-119.00302429 138.3373233 -118.04901733 138.35824036 -117.06610107 138.37979126 C-113.98164562 138.44565675 -110.89711769 138.50476404 -107.8125 138.5625 C-106.76109833 138.58301422 -105.70969666 138.60352844 -104.62643433 138.62466431 C-97.41783902 138.76443898 -90.20907495 138.88783929 -83 139 C-82.17878662 139.01309204 -81.35757324 139.02618408 -80.51147461 139.03967285 C-47.16480515 140.64999265 -47.16480515 140.64999265 -18 127 C-17.33355469 126.41347656 -16.66710937 125.82695312 -15.98046875 125.22265625 C-3.48264122 113.537307 2.60519609 98.07252327 3.22290039 81.15283203 C3.34396376 76.37617443 3.37138435 71.60104741 3.37060547 66.82299805 C3.37496498 63.83649045 3.41133409 60.85148043 3.44921875 57.86523438 C3.54023261 42.45773954 2.51116971 27.81630119 -7 15 C-7.474375 14.35675781 -7.94875 13.71351562 -8.4375 13.05078125 C-18.1752705 0.85210679 -32.92874585 -4.81902152 -48.11083984 -6.53930664 C-56.11733683 -7.29815905 -64.16815433 -7.18532675 -72.203125 -7.203125 C-73.07011772 -7.20595238 -73.93711044 -7.20877975 -74.83037567 -7.21169281 C-79.41768184 -7.22660784 -84.00495718 -7.23588611 -88.59228516 -7.24023438 C-93.2899896 -7.24571156 -97.98740316 -7.26974603 -102.68501663 -7.29820633 C-106.3348062 -7.31697328 -109.98452756 -7.3220457 -113.63436127 -7.32357025 C-115.36444439 -7.32656505 -117.09452726 -7.33448378 -118.82456207 -7.34775543 C-139.70801453 -7.49654771 -159.63646556 -4.25662762 -174.06640625 12.3828125 Z " fill="#F0824E" transform="translate(342,84)"/>
<path d="M0 0 C0.66 0 1.32 0 2 0 C0.64650296 4.84332455 -1.49497813 8.60338306 -4.4375 12.625 C-4.87489502 13.22965088 -5.31229004 13.83430176 -5.76293945 14.45727539 C-10.3941336 20.73314667 -15.5886337 26.39596895 -21 32 C-21.62648438 32.66644531 -22.25296875 33.33289063 -22.8984375 34.01953125 C-43.23674983 55.16946638 -71.11548004 67.6705896 -100.3671875 68.265625 C-102.86978193 68.27433453 -105.3724615 68.26886214 -107.875 68.25 C-109.19201904 68.24250732 -110.50903809 68.23501465 -111.8659668 68.22729492 C-133.59802518 67.98688713 -153.14588791 64.12098018 -172 53 C-172.33 52.34 -172.66 51.68 -173 51 C-166.7194835 51.87556798 -160.4617235 52.87498536 -154.203125 53.89453125 C-151.8041645 54.27883075 -149.40357204 54.64572635 -147 55 C-146.31534668 55.10151367 -145.63069336 55.20302734 -144.92529297 55.30761719 C-115.94848853 59.07331028 -86.90583707 54.68502221 -59 47 C-58.28384521 46.80639893 -57.56769043 46.61279785 -56.82983398 46.41333008 C-52.15468089 45.30847546 -52.15468089 45.30847546 -49 42 C-48.58326793 38.45800359 -48.58326793 38.45800359 -49 35 C-50.76643527 32.78067159 -50.76643527 32.78067159 -53.01367188 32.92236328 C-59.40701205 33.63315826 -65.3416582 35.04650845 -71.5 36.875 C-108.9289205 47.51055757 -155.25408821 49.22176403 -190.27880859 29.99658203 C-197.87097392 25.60066446 -203.42531975 19.69873022 -209 13 C-205.62193581 13 -204.10370813 13.76943308 -201.0625 15.1875 C-195.5191715 17.55265349 -189.96764512 19.21947918 -184.125 20.6875 C-183.33617432 20.88947998 -182.54734863 21.09145996 -181.73461914 21.29956055 C-168.20085903 24.59096444 -154.95932459 25.331557 -141.109375 25.44921875 C-139.31161763 25.47055048 -137.51386774 25.49252109 -135.71612549 25.51509094 C-131.9678509 25.56017849 -128.21958242 25.59903652 -124.47119141 25.63305664 C-119.72015494 25.67646826 -114.96939846 25.73328775 -110.21856308 25.7946043 C-106.51034118 25.84131402 -102.80207092 25.88186282 -99.09375763 25.92057228 C-97.34465005 25.93932526 -95.59555825 25.95962907 -93.84648895 25.98166466 C-84.97577106 26.08926825 -76.14281026 26.05131929 -67.28222656 25.57348633 C-66.56497784 25.53512256 -65.84772911 25.49675879 -65.10874557 25.45723248 C-43.09712377 24.11430063 -15.97732162 15.97732162 0 0 Z " fill="#83C4C5" transform="translate(357,256)"/>
<path d="M0 0 C3 1.25 3 1.25 5 4.25 C5.13603624 7.78694217 4.84299793 10.18565625 2.6015625 13.015625 C-2.39934287 17.70001737 -8.26531773 20.72180694 -14.33984375 23.76953125 C-17.09872944 24.97740336 -17.09872944 24.97740336 -18 27.25 C-18.66 27.58 -19.32 27.91 -20 28.25 C-19.34 28.58 -18.68 28.91 -18 29.25 C-18 30.24 -18 31.23 -18 32.25 C-25.59 32.25 -33.18 32.25 -41 32.25 C-41 31.92 -41 31.59 -41 31.25 C-38.03 31.25 -35.06 31.25 -32 31.25 C-32 30.59 -32 29.93 -32 29.25 C-34.73024668 28.33991777 -36.58431254 28.07951265 -39.4140625 27.96875 C-40.25710938 27.93136719 -41.10015625 27.89398438 -41.96875 27.85546875 C-43.74738356 27.78484654 -45.52602956 27.71453674 -47.3046875 27.64453125 C-48.14515625 27.60714844 -48.985625 27.56976563 -49.8515625 27.53125 C-50.62322754 27.50095703 -51.39489258 27.47066406 -52.18994141 27.43945312 C-54 27.25 -54 27.25 -55 26.25 C-55 26.58 -55 26.91 -55 27.25 C-55.62342285 27.24476318 -56.2468457 27.23952637 -56.88916016 27.23413086 C-74.50352116 26.73409138 -74.50352116 26.73409138 -92 28.25 C-92.66 28.91 -93.32 29.57 -94 30.25 C-93.67 30.91 -93.34 31.57 -93 32.25 C-93.61875 32.064375 -94.2375 31.87875 -94.875 31.6875 C-97.04160178 31.01313824 -97.04160178 31.01313824 -99 32.25 C-99 31.59 -99 30.93 -99 30.25 C-101.97 30.25 -104.94 30.25 -108 30.25 C-108 29.92 -108 29.59 -108 29.25 C-106.35 28.92 -104.7 28.59 -103 28.25 C-104.17369141 27.57904297 -104.17369141 27.57904297 -105.37109375 26.89453125 C-106.38300781 26.28996094 -107.39492187 25.68539063 -108.4375 25.0625 C-109.44683594 24.47082031 -110.45617187 23.87914062 -111.49609375 23.26953125 C-114 21.25 -114 21.25 -114.93359375 18.68359375 C-115.02230528 15.43257692 -113.87483651 13.84592748 -112 11.25 C-111 10.25 -111 10.25 -108.125 9.8125 C-103.4499623 9.87861164 -100.190984 12.21606551 -96.24609375 14.51953125 C-92.46740451 16.53392275 -88.63414103 18.07492056 -84.625 19.5625 C-83.94703369 19.81660645 -83.26906738 20.07071289 -82.57055664 20.33251953 C-64.51957995 26.91726515 -45.82243289 23.39283981 -28.83349609 15.54321289 C-21.24466425 11.86064011 -14.43171842 7.30946233 -7.6953125 2.25390625 C-3.49015317 -0.87253829 -3.49015317 -0.87253829 0 0 Z " fill="#519A9D" transform="translate(319,239.75)"/>
<path d="M0 0 C0.99 0 1.98 0 3 0 C2.34 2.31 1.68 4.62 1 7 C2.32 7 3.64 7 5 7 C5 6.34 5 5.68 5 5 C8.82989106 3.19769832 11.78121808 2.80377759 16 3 C13.47930875 5.52069125 11.39860624 5.88646349 8 7 C4.20407597 8.61077335 0.46612919 10.35379207 -3.27929688 12.078125 C-10.94199167 15.54997995 -18.55772974 18.81409009 -27 16 C-27.33 15.01 -27.66 14.02 -28 13 C-23.38 13 -18.76 13 -14 13 C-12.35 10.03 -10.7 7.06 -9 4 C-10.32 3.67 -11.64 3.34 -13 3 C-4.90339466 -1.68116388 -4.90339466 -1.68116388 0 0 Z " fill="#EF875A" transform="translate(184,231)"/>
<path d="M0 0 C0 0.99 0 1.98 0 3 C-1.98 3 -3.96 3 -6 3 C-6 3.66 -6 4.32 -6 5 C-6.66 5 -7.32 5 -8 5 C-8.33 5.99 -8.66 6.98 -9 8 C-10.32 8 -11.64 8 -13 8 C-13 8.66 -13 9.32 -13 10 C-9.28400809 10.20086443 -8.22791555 10.1519437 -5 8 C-5.33 8.763125 -5.66 9.52625 -6 10.3125 C-7.17436686 12.99069135 -7.17436686 12.99069135 -7 16 C-8.98 16.99 -8.98 16.99 -11 18 C-11 17.01 -11 16.02 -11 15 C-11.60473145 15.0407666 -12.20946289 15.0815332 -12.83251953 15.12353516 C-15.59604222 15.30290222 -18.36034348 15.46409407 -21.125 15.625 C-22.07632812 15.68945312 -23.02765625 15.75390625 -24.0078125 15.8203125 C-29.14919328 16.10594477 -33.17848347 16.12666217 -38 14 C-34.90970899 12.23068831 -31.73887457 11.321239 -28.31298828 10.40112305 C-20.22353837 8.22486064 -13.11182177 5.35666405 -5.7578125 1.35546875 C-3 0 -3 0 0 0 Z " fill="#4D979B" transform="translate(340,252)"/>
<path d="M0 0 C0.495 0.99 0.495 0.99 1 2 C0.09370346 2.0154612 0.09370346 2.0154612 -0.8309021 2.03123474 C-7.15835903 2.13999081 -13.48569319 2.25452605 -19.81298828 2.37231445 C-22.16973281 2.41544336 -24.52650417 2.45713246 -26.88330078 2.49731445 C-30.2842617 2.55555501 -33.68509028 2.61909034 -37.0859375 2.68359375 C-38.64905167 2.70866249 -38.64905167 2.70866249 -40.2437439 2.73423767 C-45.82908897 2.84560717 -51.32811458 3.14969785 -56.87963867 3.78283691 C-59.80036501 4.08197175 -62.69115149 4.09661452 -65.625 4.0625 C-66.64851563 4.05347656 -67.67203125 4.04445313 -68.7265625 4.03515625 C-69.85191406 4.01775391 -69.85191406 4.01775391 -71 4 C-71 4.66 -71 5.32 -71 6 C-72.98 6 -74.96 6 -77 6 C-77 6.66 -77 7.32 -77 8 C-79.97 8 -82.94 8 -86 8 C-64.05384438 -6.63077041 -25.13693257 -0.12005148 0 0 Z " fill="#EAAA8D" transform="translate(268,61)"/>
<path d="M0 0 C2 3 2 3 2.125 6.25 C0.56307325 11.45642251 -2.59636135 13.96714381 -7 17 C-7.99 17.33 -8.98 17.66 -10 18 C-10.33 17.34 -10.66 16.68 -11 16 C-10.67 15.01 -10.34 14.02 -10 13 C-9.01 12.67 -8.02 12.34 -7 12 C-6.67 11.34 -6.34 10.68 -6 10 C-4.68 10.33 -3.36 10.66 -2 11 C-1.67 9.35 -1.34 7.7 -1 6 C-1.7425 6.04125 -2.485 6.0825 -3.25 6.125 C-6 6 -6 6 -8 4.9375 C-10.65584118 3.69257445 -12.23567345 4.23213151 -15 5 C-7.16453674 -3.27076677 -7.16453674 -3.27076677 0 0 Z " fill="#68A3A3" transform="translate(322,241)"/>
<path d="M0 0 C1.875 0.1875 1.875 0.1875 4 1 C5.25 3.5625 5.25 3.5625 6 6 C6.88751953 6.02126953 6.88751953 6.02126953 7.79296875 6.04296875 C12.35846843 6.31853725 14.44161431 6.53277932 18.0625 9.5625 C18.701875 10.366875 19.34125 11.17125 20 12 C19.34 12 18.68 12 18 12 C18 12.66 18 13.32 18 14 C16.02 14.33 14.04 14.66 12 15 C12.33 15.66 12.66 16.32 13 17 C12.34 17.66 11.68 18.32 11 19 C8.03073619 15.44608026 5.57681464 11.81482005 3.25 7.8125 C2.63640625 6.76707031 2.0228125 5.72164063 1.390625 4.64453125 C0 2 0 2 0 0 Z " fill="#52999C" transform="translate(128,265)"/>
<path d="M0 0 C2.125 0.375 2.125 0.375 4 1 C3.4740625 1.8971875 3.4740625 1.8971875 2.9375 2.8125 C1.66695302 5.10813214 1.66695302 5.10813214 3 8 C3.66 8.66 4.32 9.32 5 10 C5 10.33 5 10.66 5 11 C6.65 11 8.3 11 10 11 C7.37801226 13.15377564 5.35595828 14.40072174 2 15 C1.34 14.01 0.68 13.02 0 12 C-0.66 12 -1.32 12 -2 12 C-2.33 10.68 -2.66 9.36 -3 8 C-6.71599191 7.79913557 -7.77208445 7.8480563 -11 10 C-13.6875 10.125 -13.6875 10.125 -16 10 C-13.10675957 7.69213612 -10.21289861 6.02673829 -6.875 4.4375 C-4.0908526 3.11151882 -2.1883503 2.1883503 0 0 Z " fill="#48979C" transform="translate(302,248)"/>
<path d="M0 0 C9.8381343 2.00097647 18.20389227 6.3536244 27 11 C26.34 11.66 25.68 12.32 25 13 C22.8359375 12.7578125 22.8359375 12.7578125 20.375 12.125 C19.55773437 11.92132813 18.74046875 11.71765625 17.8984375 11.5078125 C17.27195312 11.34023437 16.64546875 11.17265625 16 11 C16.33 9.68 16.66 8.36 17 7 C12.05 7 7.1 7 2 7 C2 6.01 2 5.02 2 4 C1.34 4 0.68 4 0 4 C0 2.68 0 1.36 0 0 Z " fill="#ED9468" transform="translate(304,64)"/>
<path d="M0 0 C0.99 0.33 1.98 0.66 3 1 C-2.21569516 7.66449937 -8.44140914 12.72553454 -15 18 C-15.66 16.68 -16.32 15.36 -17 14 C-15.35 13.01 -13.7 12.02 -12 11 C-12.33 9.68 -12.66 8.36 -13 7 C-11.68 6.67 -10.36 6.34 -9 6 C-9 6.66 -9 7.32 -9 8 C-8.01 8 -7.02 8 -6 8 C-6 7.01 -6 6.02 -6 5 C-5.01 5 -4.02 5 -3 5 C-3 4.34 -3 3.68 -3 3 C-1.5 1.375 -1.5 1.375 0 0 Z " fill="#5E9D9E" transform="translate(349,292)"/>
<path d="M0 0 C4.38447663 0.76920643 5.847312 2.16930618 8.5625 5.625 C8.5625 6.285 8.5625 6.945 8.5625 7.625 C7.5725 7.955 6.5825 8.285 5.5625 8.625 C4.9025 6.645 4.2425 4.665 3.5625 2.625 C1.5825 2.625 -0.3975 2.625 -2.4375 2.625 C-2.48648438 3.22828125 -2.53546875 3.8315625 -2.5859375 4.453125 C-2.66070312 5.25234375 -2.73546875 6.0515625 -2.8125 6.875 C-2.88210937 7.66390625 -2.95171875 8.4528125 -3.0234375 9.265625 C-3.45257113 11.710877 -4.22350638 13.47336903 -5.4375 15.625 C-7.97530203 6.79413484 -7.97530203 6.79413484 -6 2.5 C-3.4375 0.625 -3.4375 0.625 0 0 Z " fill="#70A4A2" transform="translate(124.4375,230.375)"/>
<path d="M0 0 C-0.66 1.32 -1.32 2.64 -2 4 C-1.01 3.67 -0.02 3.34 1 3 C1.33 4.32 1.66 5.64 2 7 C-0.31 7 -2.62 7 -5 7 C-4.67 6.34 -4.34 5.68 -4 5 C-5.175625 4.7834375 -5.175625 4.7834375 -6.375 4.5625 C-9 4 -9 4 -11 3 C-11 2.34 -11 1.68 -11 1 C-6.8204355 -1.78637633 -4.85331323 -0.79562512 0 0 Z " fill="#469497" transform="translate(302,256)"/>
<path d="M0 0 C0.66 0 1.32 0 2 0 C2.07483244 2.61913531 2.04470762 4.83011106 1.375 7.375 C0.86544553 10.94188126 1.9285231 13.59648515 3 17 C3 17.99 3 18.98 3 20 C0.05016378 18.03344252 -1.72087728 16.73269714 -3 13.375 C-3 8.59764033 -1.56702914 4.47975562 0 0 Z " fill="#E79F79" transform="translate(151,224)"/>
<path d="M0 0 C0 0.99 0 1.98 0 3 C-1.670625 2.7525 -1.670625 2.7525 -3.375 2.5 C-6.72032033 1.9544542 -6.72032033 1.9544542 -9 2 C-8.814375 2.78375 -8.62875 3.5675 -8.4375 4.375 C-8 7 -8 7 -9 9 C-9.99 9 -10.98 9 -12 9 C-12.33 9.99 -12.66 10.98 -13 12 C-13.66 10.68 -14.32 9.36 -15 8 C-14.04663979 6.68388323 -13.08714226 5.37221039 -12.125 4.0625 C-11.59132813 3.33160156 -11.05765625 2.60070312 -10.5078125 1.84765625 C-7.36495809 -2.00356172 -4.56571729 -0.76095288 0 0 Z " fill="#5EA4A0" transform="translate(374,226)"/>
<path d="M0 0 C0.79921875 0.11085938 1.5984375 0.22171875 2.421875 0.3359375 C3.32679688 0.47902344 3.32679688 0.47902344 4.25 0.625 C1.84231297 3.41663712 -0.51146616 4.52217557 -3.9375 5.8125 C-4.83855469 6.15667969 -5.73960937 6.50085938 -6.66796875 6.85546875 C-7.35503906 7.10941406 -8.04210937 7.36335938 -8.75 7.625 C-8.75 5.645 -8.75 3.665 -8.75 1.625 C-5.5750906 -0.2828584 -3.64414789 -0.5359041 0 0 Z " fill="#599E9E" transform="translate(315.75,318.375)"/>
<path d="M0 0 C2.125 0.375 2.125 0.375 4 1 C-0.07896996 6.80944206 -0.07896996 6.80944206 -4.625 7.75 C-5.73875 7.8325 -6.8525 7.915 -8 8 C-8.99 8.66 -9.98 9.32 -11 10 C-13.6875 10.125 -13.6875 10.125 -16 10 C-13.10675957 7.69213612 -10.21289861 6.02673829 -6.875 4.4375 C-4.0908526 3.11151882 -2.1883503 2.1883503 0 0 Z " fill="#73A8A8" transform="translate(302,248)"/>
<path d="M0 0 C0 0.99 0 1.98 0 3 C-1.98 3 -3.96 3 -6 3 C-6 3.66 -6 4.32 -6 5 C-6.66 5 -7.32 5 -8 5 C-8.33 5.99 -8.66 6.98 -9 8 C-12.67566856 9.61729417 -17.07239675 9.06546005 -21 9 C-20.48566406 8.74476563 -19.97132813 8.48953125 -19.44140625 8.2265625 C-17.50570508 7.25406623 -15.57762355 6.26640561 -13.65234375 5.2734375 C-12.4141333 4.64048647 -11.17585028 4.0076774 -9.9375 3.375 C-9.00067383 2.88773438 -9.00067383 2.88773438 -8.04492188 2.390625 C-5.16238493 0.92628392 -3.27983726 0 0 0 Z " fill="#71A8A7" transform="translate(340,252)"/>
<path d="M0 0 C3.73487777 0.4979837 5.81237635 0.87491756 9 3 C11.62531524 3.16713569 11.62531524 3.16713569 14 3 C14 3.99 14 4.98 14 6 C15.32 6.33 16.64 6.66 18 7 C18 7.66 18 8.32 18 9 C11.79522136 7.06375702 5.89174281 4.74390859 0 2 C0 1.34 0 0.68 0 0 Z " fill="#78AAA9" transform="translate(185,322)"/>
<path d="M0 0 C0.33 0.66 0.66 1.32 1 2 C-0.29296875 4.64453125 -0.29296875 4.64453125 -2.1875 7.8125 C-2.79980469 8.85019531 -3.41210938 9.88789063 -4.04296875 10.95703125 C-5.87400886 13.8040976 -7.83420051 16.40200105 -10 19 C-10 17.02 -10 15.04 -10 13 C-9.01 13 -8.02 13 -7 13 C-7 11.68 -7 10.36 -7 9 C-6.34 9 -5.68 9 -5 9 C-5 8.01 -5 7.02 -5 6 C-4.34 6 -3.68 6 -3 6 C-3 4.35 -3 2.7 -3 1 C-2.01 0.67 -1.02 0.34 0 0 Z " fill="#E99F7A" transform="translate(352,195)"/>
<path d="M0 0 C4.14298667 0.59834725 7.18194377 2.00664285 10.8125 4.0625 C11.78832031 4.61035156 12.76414062 5.15820312 13.76953125 5.72265625 C14.50558594 6.14417969 15.24164063 6.56570312 16 7 C15.34 7.66 14.68 8.32 14 9 C11.8359375 8.7578125 11.8359375 8.7578125 9.375 8.125 C8.55773437 7.92132813 7.74046875 7.71765625 6.8984375 7.5078125 C6.27195312 7.34023437 5.64546875 7.17265625 5 7 C5.33 5.68 5.66 4.36 6 3 C3.03 2.505 3.03 2.505 0 2 C0 1.34 0 0.68 0 0 Z " fill="#EA956C" transform="translate(315,68)"/>
<path d="M0 0 C0.99 0.33 1.98 0.66 3 1 C2.06409496 2.1055189 1.12620142 3.20935453 0.1875 4.3125 C-0.33457031 4.92738281 -0.85664063 5.54226563 -1.39453125 6.17578125 C-4.3373102 9.51952278 -4.3373102 9.51952278 -6 11 C-6.66 11 -7.32 11 -8 11 C-8 10.34 -8 9.68 -8 9 C-8.66 8.67 -9.32 8.34 -10 8 C-8.68 8 -7.36 8 -6 8 C-6 7.01 -6 6.02 -6 5 C-5.01 5 -4.02 5 -3 5 C-3 4.34 -3 3.68 -3 3 C-1.5 1.375 -1.5 1.375 0 0 Z " fill="#68A4A2" transform="translate(349,292)"/>
<path d="M0 0 C2.9375 0.8125 2.9375 0.8125 6 2 C6.33 2.99 6.66 3.98 7 5 C6.67 5.66 6.34 6.32 6 7 C2.9168649 5.80100302 -0.06279492 4.52299523 -3 3 C-2.01 2.01 -1.02 1.02 0 0 Z " fill="#619E9C" transform="translate(316,239)"/>
<path d="M0 0 C0.33 0.99 0.66 1.98 1 3 C2.65 2.67 4.3 2.34 6 2 C6 3.32 6 4.64 6 6 C4.02 6.66 2.04 7.32 0 8 C0.33 7.01 0.66 6.02 1 5 C-0.32 5 -1.64 5 -3 5 C-3 3 -3 3 -1.5 1.375 C-1.005 0.92125 -0.51 0.4675 0 0 Z " fill="#F08F60" transform="translate(317,224)"/>
<path d="M0 0 C0.33 0 0.66 0 1 0 C2.05619003 4.28297531 2.11702092 8.42985646 2.0625 12.8125 C2.05798828 13.50537109 2.05347656 14.19824219 2.04882812 14.91210938 C2.03713156 16.60811068 2.01919924 18.30406703 2 20 C1.67 20 1.34 20 1 20 C0.80083984 18.53626953 0.80083984 18.53626953 0.59765625 17.04296875 C0.42105469 15.77066406 0.24445313 14.49835938 0.0625 13.1875 C-0.11152344 11.92292969 -0.28554688 10.65835938 -0.46484375 9.35546875 C-0.90392455 6.01678297 -0.90392455 6.01678297 -2 3 C-1.34 3 -0.68 3 0 3 C0 2.01 0 1.02 0 0 Z " fill="#E7966B" transform="translate(357,114)"/>
<path d="M0 0 C4.04161955 1.34484714 6.38678154 3.0505162 9.3125 6.125 C10.00988281 6.84945313 10.70726562 7.57390625 11.42578125 8.3203125 C11.94527344 8.87460937 12.46476563 9.42890625 13 10 C12.34 10.66 11.68 11.32 11 12 C9.16364422 10.19047409 7.33083792 8.37759362 5.5 6.5625 C4.97535156 6.04623047 4.45070312 5.52996094 3.91015625 4.99804688 C2.58775448 3.68423213 1.29164432 2.34406495 0 1 C0 0.67 0 0.34 0 0 Z " fill="#77A7A8" transform="translate(144,290)"/>
<path d="M0 0 C0.91007813 0.10183594 1.82015625 0.20367187 2.7578125 0.30859375 C3.45648438 0.39238281 4.15515625 0.47617187 4.875 0.5625 C1.875 2.5625 1.875 2.5625 -1.75 3.0625 C-2.86375 3.2275 -3.9775 3.3925 -5.125 3.5625 C-5.455 4.2225 -5.785 4.8825 -6.125 5.5625 C-6.455 3.9125 -6.785 2.2625 -7.125 0.5625 C-4.50184968 -0.74907516 -2.89466564 -0.33399988 0 0 Z " fill="#64A3A2" transform="translate(195.125,266.4375)"/>
<path d="M0 0 C3.41158256 1.13719419 4.11854601 2.04342944 6 5 C6 5.66 6 6.32 6 7 C1.87248551 6.39301257 -1.3321148 4.96189209 -5 3 C-4.360625 2.87625 -3.72125 2.7525 -3.0625 2.625 C-2.0415625 2.315625 -2.0415625 2.315625 -1 2 C-0.67 1.34 -0.34 0.68 0 0 Z " fill="#439093" transform="translate(157,267)"/>
<path d="M0 0 C0.66 0 1.32 0 2 0 C2 0.66 2 1.32 2 2 C1.34 2 0.68 2 0 2 C-0.66 3.98 -1.32 5.96 -2 8 C-1.01 8.33 -0.02 8.66 1 9 C0.67 10.32 0.34 11.64 0 13 C-3 11 -3 11 -3.875 8.6875 C-4.03486723 5.25035453 -2.98450394 3.74777469 -1 1 C-0.67 0.67 -0.34 0.34 0 0 Z " fill="#77A7A6" transform="translate(208,250)"/>
<path d="M0 0 C-0.33 0.66 -0.66 1.32 -1 2 C-2.98 2 -4.96 2 -7 2 C-7 2.66 -7 3.32 -7 4 C-9.97 4 -12.94 4 -16 4 C-13.41588269 2.27725513 -11.45097344 1.31104478 -8.5625 0.3125 C-7.41974609 -0.09548828 -7.41974609 -0.09548828 -6.25390625 -0.51171875 C-3.78170279 -1.04729142 -2.37016716 -0.80445309 0 0 Z " fill="#ECA887" transform="translate(198,65)"/>
<path d="M0 0 C-0.33 0.66 -0.66 1.32 -1 2 C-2.32 2 -3.64 2 -5 2 C-4.01 2.66 -3.02 3.32 -2 4 C-4.64 4 -7.28 4 -10 4 C-9.625 1.5625 -9.625 1.5625 -9 -1 C-5.79937313 -2.60031344 -3.27728194 -1.03173691 0 0 Z " fill="#459395" transform="translate(226,257)"/>
<path d="M0 0 C7.425 0.99 7.425 0.99 15 2 C10.74100702 4.12949649 8.65688422 4.25401187 4 4 C3.01 3.67 2.02 3.34 1 3 C0.67 2.01 0.34 1.02 0 0 Z " fill="#E8A17F" transform="translate(156,244)"/>
<path d="M0 0 C4.75 1.875 4.75 1.875 7 3 C7 5.31 7 7.62 7 10 C6.1028125 8.7934375 6.1028125 8.7934375 5.1875 7.5625 C3.19052724 4.77672016 3.19052724 4.77672016 0 4 C0 2.68 0 1.36 0 0 Z " fill="#679FA0" transform="translate(369,248)"/>
<path d="M0 0 C0.99 0.33 1.98 0.66 3 1 C3.38897161 2.62171239 3.76078298 4.24754925 4.125 5.875 C4.33382812 6.77992188 4.54265625 7.68484375 4.7578125 8.6171875 C4.83773437 9.40351563 4.91765625 10.18984375 5 11 C4.34 11.66 3.68 12.32 3 13 C2.49242138 11.58603098 1.99425075 10.16868271 1.5 8.75 C1.08234375 7.56664062 1.08234375 7.56664062 0.65625 6.359375 C0 4 0 4 0 0 Z " fill="#EB9F7C" transform="translate(144,183)"/>
<path d="M0 0 C6.57142857 4 6.57142857 4 8 8 C5.03 7.505 5.03 7.505 2 7 C1.34 4.69 0.68 2.38 0 0 Z " fill="#ED9F79" transform="translate(335,79)"/>
<path d="M0 0 C4.49996683 -0.44117322 6.34611117 -0.52867608 9.9375 2.375 C12 5 12 5 12 7 C11.01 7.33 10.02 7.66 9 8 C8.34 6.02 7.68 4.04 7 2 C4.69 1.67 2.38 1.34 0 1 C0 0.67 0 0.34 0 0 Z " fill="#7FACAD" transform="translate(121,231)"/>
<path d="M0 0 C3 1 3 1 4.6875 4.0625 C5.120625 5.031875 5.55375 6.00125 6 7 C6.66 7 7.32 7 8 7 C7.34 8.32 6.68 9.64 6 11 C2.90407165 7.4912812 1.25805377 4.50802601 0 0 Z " fill="#EBA381" transform="translate(148,196)"/>
<path d="M0 0 C2.475 0.99 2.475 0.99 5 2 C5 2.33 5 2.66 5 3 C3.06403108 3.22211116 1.12610672 3.42722992 -0.8125 3.625 C-2.43091797 3.79902344 -2.43091797 3.79902344 -4.08203125 3.9765625 C-7 4 -7 4 -10 2 C-9.04287109 1.90912109 -9.04287109 1.90912109 -8.06640625 1.81640625 C-6.82697266 1.69072266 -6.82697266 1.69072266 -5.5625 1.5625 C-4.73878906 1.48128906 -3.91507812 1.40007812 -3.06640625 1.31640625 C-1.01337975 1.21069185 -1.01337975 1.21069185 0 0 Z " fill="#71A9A9" transform="translate(274,333)"/>
<path d="M0 0 C1.10844919 3.32534757 0.84454356 5.62182575 0 9 C-0.66 9 -1.32 9 -2 9 C-2.66 10.32 -3.32 11.64 -4 13 C-3.50269348 8.02693484 -2.44697666 4.36200187 0 0 Z " fill="#E8A584" transform="translate(149,99)"/>
<path d="M0 0 C1.875 0.1875 1.875 0.1875 4 1 C5.49655455 3.63678659 6.17595756 5.16532951 5.54296875 8.16796875 C5.36378906 8.77253906 5.18460938 9.37710937 5 10 C4.16121545 8.71186658 3.32913217 7.41936744 2.5 6.125 C2.0359375 5.40570313 1.571875 4.68640625 1.09375 3.9453125 C0 2 0 2 0 0 Z " fill="#78A9A8" transform="translate(128,265)"/>
<path d="M0 0 C1.1875 1.625 1.1875 1.625 2 4 C0.625 7.25 0.625 7.25 -1 10 C-1.66 9.67 -2.32 9.34 -3 9 C-2.25 2.25 -2.25 2.25 0 0 Z " fill="#6EA7A2" transform="translate(373,238)"/>
<path d="M0 0 C0 0.99 0 1.98 0 3 C0.66 3 1.32 3 2 3 C2.33 4.32 2.66 5.64 3 7 C-1.67692308 5.52307692 -1.67692308 5.52307692 -3.3125 2.875 C-3.539375 2.25625 -3.76625 1.6375 -4 1 C-2 0 -2 0 0 0 Z " fill="#429492" transform="translate(134,239)"/>
<path d="M0 0 C0 0.99 0 1.98 0 3 C-1.093125 2.814375 -2.18625 2.62875 -3.3125 2.4375 C-6.93624133 1.7421932 -6.93624133 1.7421932 -10 3 C-9.67 2.01 -9.34 1.02 -9 0 C-5.93109813 -1.53445094 -3.29905734 -0.54984289 0 0 Z " fill="#7DA9A8" transform="translate(374,226)"/>
<path d="M0 0 C0.33 0.99 0.66 1.98 1 3 C0.01 4.485 0.01 4.485 -1 6 C-1.66 6 -2.32 6 -3 6 C-3 6.66 -3 7.32 -3 8 C-3.66 8 -4.32 8 -5 8 C-5 8.66 -5 9.32 -5 10 C-5.66 9.67 -6.32 9.34 -7 9 C-6.02180976 7.68677212 -5.0424189 6.37443848 -4.0625 5.0625 C-3.51722656 4.33160156 -2.97195312 3.60070312 -2.41015625 2.84765625 C-1 1 -1 1 0 0 Z " fill="#EBA88B" transform="translate(162,81)"/>
<path d="M0 0 C2.31 1.98 4.62 3.96 7 6 C6.67 6.66 6.34 7.32 6 8 C5.34 7.34 4.68 6.68 4 6 C3.01 6.495 3.01 6.495 2 7 C1.01 5.02 0.02 3.04 -1 1 C-0.67 0.67 -0.34 0.34 0 0 Z " fill="#438E8F" transform="translate(153,275)"/>
<path d="M0 0 C0.66 0.33 1.32 0.66 2 1 C1.5206753 5.31392226 0.2542015 7.16569547 -3 10 C-3.33 8.35 -3.66 6.7 -4 5 C-2.68 5 -1.36 5 0 5 C0 3.35 0 1.7 0 0 Z " fill="#76A7A7" transform="translate(364,272)"/>
<path d="M0 0 C-0.33 0.66 -0.66 1.32 -1 2 C-1.66 2 -2.32 2 -3 2 C-3.33 2.66 -3.66 3.32 -4 4 C-4.99 4 -5.98 4 -7 4 C-6.625 2.0625 -6.625 2.0625 -6 0 C-3.50907189 -1.24546405 -2.58919267 -0.7767578 0 0 Z " fill="#439596" transform="translate(216,259)"/>
<path d="M0 0 C0 0.99 0 1.98 0 3 C-1.98 3 -3.96 3 -6 3 C-6 3.66 -6 4.32 -6 5 C-7.32 4.67 -8.64 4.34 -10 4 C-3.375 0 -3.375 0 0 0 Z " fill="#7BABAD" transform="translate(340,252)"/>
<path d="M0 0 C0.99 0.495 0.99 0.495 2 1 C2.4140625 3.28515625 2.4140625 3.28515625 2.625 6.0625 C2.69976562 6.98160156 2.77453125 7.90070313 2.8515625 8.84765625 C2.92503906 9.91306641 2.92503906 9.91306641 3 11 C2.01 11 1.02 11 0 11 C0 7.37 0 3.74 0 0 Z " fill="#EF9F7D" transform="translate(154,207)"/>
<path d="M0 0 C2.64 0 5.28 0 8 0 C5.82575883 2.50037734 4.26954202 3.43628586 1 4 C0.67 2.68 0.34 1.36 0 0 Z " fill="#74A9A8" transform="translate(312,319)"/>
<path d="M0 0 C0 0.66 0 1.32 0 2 C-2.40545638 3.20272819 -3.94996953 3.10071472 -6.625 3.0625 C-7.85089844 3.04896484 -7.85089844 3.04896484 -9.1015625 3.03515625 C-10.04128906 3.01775391 -10.04128906 3.01775391 -11 3 C-7.20844146 1.05276952 -4.29965574 0 0 0 Z " fill="#83AEAE" transform="translate(278,261)"/>
<path d="M0 0 C-2.62198774 2.15377564 -4.64404172 3.40072174 -8 4 C-8.33 3.01 -8.66 2.02 -9 1 C-5.92677456 0.08941469 -3.19902639 -0.08886184 0 0 Z " fill="#76AAAD" transform="translate(312,259)"/>
<path d="M0 0 C2 1 2 1 3.125 3.375 C4 6 4 6 4 9 C2 7.875 2 7.875 0 6 C-0.25 2.8125 -0.25 2.8125 0 0 Z " fill="#E88B65" transform="translate(150,235)"/>
<path d="M0 0 C0.66 0 1.32 0 2 0 C1.67 3.3 1.34 6.6 1 10 C-1.56687367 6.1496895 -0.83288724 4.41430237 0 0 Z " fill="#81AFAD" transform="translate(375,230)"/>
<path d="M0 0 C0.99 0.33 1.98 0.66 3 1 C1.35 2.98 -0.3 4.96 -2 7 C-2.6875 5.1875 -2.6875 5.1875 -3 3 C-1.5625 1.25 -1.5625 1.25 0 0 Z " fill="#85B5B3" transform="translate(349,292)"/>
<path d="M0 0 C-1.485 1.485 -1.485 1.485 -3 3 C-4.98 2.34 -6.96 1.68 -9 1 C-5.64919071 -1.10976881 -3.77897651 -1.0497157 0 0 Z " fill="#72ABAB" transform="translate(311,265)"/>
<path d="M0 0 C0.66 0 1.32 0 2 0 C1.67 2.31 1.34 4.62 1 7 C0.34 6.67 -0.32 6.34 -1 6 C-1 5.01 -1 4.02 -1 3 C-1.66 2.67 -2.32 2.34 -3 2 C-2.01 2 -1.02 2 0 2 C0 1.34 0 0.68 0 0 Z " fill="#78A9AB" transform="translate(322,244)"/>
<path d="M0 0 C0.99 0.33 1.98 0.66 3 1 C2.34 2.65 1.68 4.3 1 6 C0.01 5.01 -0.98 4.02 -2 3 C-1.34 2.01 -0.68 1.02 0 0 Z " fill="#529B99" transform="translate(359,278)"/>
<path d="M0 0 C4.95 0.99 4.95 0.99 10 2 C10 2.33 10 2.66 10 3 C4.58461538 4.23076923 4.58461538 4.23076923 1.625 3.0625 C1.08875 2.711875 0.5525 2.36125 0 2 C0 1.34 0 0.68 0 0 Z " fill="#7CAAAA" transform="translate(175,262)"/>
<path d="M0 0 C1.32 0 2.64 0 4 0 C3.6875 1.9375 3.6875 1.9375 3 4 C2.01 4.33 1.02 4.66 0 5 C-0.33 4.34 -0.66 3.68 -1 3 C-0.67 2.01 -0.34 1.02 0 0 Z " fill="#5B9FA1" transform="translate(312,254)"/>
<path d="M0 0 C0.99 0.33 1.98 0.66 3 1 C1 4 1 4 -2.125 4.6875 C-3.07375 4.790625 -4.0225 4.89375 -5 5 C-3.35 3.35 -1.7 1.7 0 0 Z " fill="#EFA17C" transform="translate(168,76)"/>
<path d="M0 0 C3.82097239 0.53069061 6.06171403 1.49701566 9 4 C8.01 4.33 7.02 4.66 6 5 C6 4.34 6 3.68 6 3 C3.03 2.505 3.03 2.505 0 2 C0 1.34 0 0.68 0 0 Z " fill="#ECAA83" transform="translate(315,68)"/>
<path d="M0 0 C0.66 0 1.32 0 2 0 C1.67 0.99 1.34 1.98 1 3 C0.34 2.67 -0.32 2.34 -1 2 C-0.67 1.34 -0.34 0.68 0 0 Z " fill="#101010" transform="translate(208,402)"/>
<path d="M0 0 C0.99 1.485 0.99 1.485 2 3 C1.67 3.66 1.34 4.32 1 5 C0.67 3.35 0.34 1.7 0 0 Z " fill="#191919" transform="translate(204,400)"/>
<path d="M0 0 C0 3 0 3 0 3 Z " fill="#000000" transform="translate(254,388)"/>
<path d="" fill="#7F7F7F" transform="translate(0,0)"/>
<path d="" fill="#000000" transform="translate(0,0)"/>
<path d="" fill="#000000" transform="translate(0,0)"/>
</svg>
